<svg id="Слой_1" data-name="Слой 1" xmlns="http://www.w3.org/2000/svg" viewBox="0 0 374.22 213.65"><defs><style>.cls-1{fill:#0097c7;}</style></defs><path class="cls-1" d="M140.38,213.52c-18.09-.47-40.42.9-62.7-.59C38.6,210.32,6.9,178.12,4.06,139S26,66.14,62.11,55.44a71.86,71.86,0,0,1,31.14-2.33c4.43.67,6.2-1,8.24-4.15C114,29.43,131.3,15.67,152.87,7.26c1.55-.61,3.48-2.4,5-.82,1.36,1.42,0,3.44-.52,5.16-6.92,23.06-13.88,46.11-20.71,69.2-.92,3.1-2,4.82-5.72,5.52-12.73,2.41-21.35,12-23.2,24.83a28.56,28.56,0,0,0,15,29.14c11.22,6,23.67,4.52,33.35-4a8.5,8.5,0,0,1,5.24-2.44c18.58-1.39,37.16-2.88,55.74-4.33,5.13-.4,11.45,6.75,10.26,11.77-5.39,22.79-10.9,45.55-16.24,68.35-.75,3.19-2.28,4-5.5,4C185.24,213.44,164.92,213.52,140.38,213.52Z" transform="translate(-3.84)"/><path class="cls-1" d="M235.38,213.21q6.06-25.29,12.06-50.38c.43-1.78.94-3.54,1.23-5.34,1.38-8.29,3.84-14.67,13.1-18.55,11-4.58,15.67-18.32,13.18-30.23a29.52,29.52,0,0,0-23.74-22.77C239,84,226.94,89.57,221.3,100.35c-1.84,3.5-4,4.44-7.65,4.69-14.27,1-28.52,2.27-42.77,3.59-3.61.34-6.64.38-7.11-4.31a4.69,4.69,0,0,0-1.28-2.67c-5.65-5.42-3.16-11.3-1.33-17.34,7.87-26,15.71-52.09,23.29-78.23,1.32-4.57,3.21-6.29,8.16-6.06C230.3,1.79,259.82,18,280.72,49.45c2,3,3.69,4.08,7.48,3.64,41.09-4.78,79.61,22.58,88,62.26,8.85,41.74-14.81,82.1-55.48,94.65a66.05,66.05,0,0,1-19.13,3.15C279.65,213.3,257.69,213.21,235.38,213.21Z" transform="translate(-3.84)"/></svg>